# xmcd
#
# Track frame offsets:
#	150
#	14096
#	25052
#	34488
#	44428
#	54440
#	63026
#	74272
#	84960
#	99453
#	116691
#
# Disc length: 1715 seconds
#
# Revision: 1
# Processed by: cddbd v1.5.2PL0 Copyright (c) Steve Scherf et al.
# Submitted via: audiograbber 1.83.01
#
DISCID=8d06b10b
DTITLE=Dolly Parton - The Fairest Of Them All
DYEAR=1970
DGENRE=Country
TTITLE0=Daddy Come And Get Me
TTITLE1=Chas
TTITLE2=When Possession Gets Too Strong
TTITLE3=Before You Make Up Your Mind
TTITLE4=I'm Doing This For Your Sake
TTITLE5=But You Loved Me Then
TTITLE6=Just The Way I Am
TTITLE7=More Than Their Share
TTITLE8=Mammie
TTITLE9=Down From Dover
TTITLE10=Robert
EXTD=
EXTT0=
EXTT1=
EXTT2=
EXTT3=
EXTT4=
EXTT5=
EXTT6=
EXTT7=
EXTT8=
EXTT9=
EXTT10=
PLAYORDER=
